<svg xmlns="http://www.w3.org/2000/svg" width="24" height="24" viewBox="0 0 24 24"><path d="M23.388 7.879c0-5.207-3.412-6.732-3.412-6.732C18.256.358 15.303.025 12.235 0h-.076C9.091.025 6.14.358 4.419 1.147c0 0-3.412 1.527-3.412 6.732 0 1.192-.023 2.618.015 4.13.123 5.091.933 10.11 5.641 11.355 2.171.575 4.034.695 5.534.612 2.722-.151 4.25-.97 4.25-.97l-.09-1.976s-1.946.614-4.13.539c-2.164-.074-4.448-.233-4.799-2.891a5.45 5.45 0 0 1-.048-.745s2.125.52 4.817.643c1.647.076 3.19-.096 4.758-.283 3.008-.359 5.626-2.211 5.955-3.905.521-2.667.478-6.509.478-6.509Zm-4.024 6.708h-2.497V8.469c0-1.29-.543-1.944-1.629-1.944-1.2 0-1.801.776-1.801 2.312v3.349h-2.483V8.837c0-1.536-.601-2.312-1.802-2.312-1.086 0-1.629.655-1.629 1.944v6.118H5.026V8.284c0-1.289.328-2.313.988-3.07.679-.757 1.568-1.146 2.673-1.146 1.278 0 2.247.491 2.886 1.474l.622 1.043.623-1.043c.639-.983 1.608-1.474 2.886-1.474 1.104 0 1.994.389 2.673 1.146.659.757.987 1.781.987 3.07v6.303Z"/></svg>