<?xml version="1.0" encoding="utf-8"?>
<svg role="img" viewBox="0 0 24 24" xmlns="http://www.w3.org/2000/svg">
  <title>Notist</title>
  <path d="M 22.753 16.78 C 21.666 18.165 19.464 20.146 16.244 20.146 C 13.314 20.146 11.516 18.398 11.516 16.189 C 11.516 13.054 13.16 10.998 13.16 8.993 C 13.16 8.17 12.697 7.554 11.976 7.554 C 11.104 7.554 9.868 8.428 8.739 10.689 C 7.864 12.437 6.53 16.805 6.53 18.807 C 6.53 19.682 6.169 19.888 5.398 19.888 C 3.855 19.888 1.851 20.146 1.081 20.146 C 0.412 20.146 0 19.888 0 19.015 C 0 17.112 2.158 10.176 2.158 7.399 C 2.158 6.525 1.8 6.424 1.8 5.755 C 1.8 4.623 4.574 3.854 7.556 3.854 C 8.686 3.854 9.304 4.317 9.304 5.188 C 9.304 6.013 8.894 7.502 8.894 7.502 C 9.82 6.372 12.849 3.854 15.884 3.854 C 18.711 3.854 19.84 5.138 19.84 7.091 C 19.84 9.456 18.402 12.025 18.402 14.132 C 18.402 15.47 19.124 15.982 20.047 15.982 C 20.923 15.982 21.325 15.563 22.001 14.903 C 22.048 14.858 25.926 11.942 22.753 16.778 L 22.753 16.78 Z" fill-rule="evenodd"/>
</svg>
