<?xml version="1.0" standalone="no"?>
<!DOCTYPE svg PUBLIC "-//W3C//DTD SVG 20010904//EN"
 "http://www.w3.org/TR/2001/REC-SVG-20010904/DTD/svg10.dtd">
<svg version="1.0" xmlns="http://www.w3.org/2000/svg"
 width="260.000000pt" height="260.000000pt" viewBox="0 0 260.000000 260.000000"
 preserveAspectRatio="xMidYMid meet">
<metadata>
Created by potrace 1.11, written by Peter Selinger 2001-2013
</metadata>
<g transform="translate(0.000000,260.000000) scale(0.100000,-0.100000)"
fill="#000000" stroke="none">
<path d="M1656 2535 c-3 -8 -1 -15 4 -15 6 0 10 7 10 15 0 8 -2 15 -4 15 -2 0
-6 -7 -10 -15z"/>
<path d="M2040 2520 c-8 -5 -10 -10 -5 -10 6 0 17 5 25 10 8 5 11 10 5 10 -5
0 -17 -5 -25 -10z"/>
<path d="M2125 2510 c-3 -5 -1 -10 4 -10 6 0 11 5 11 10 0 6 -2 10 -4 10 -3 0
-8 -4 -11 -10z"/>
<path d="M2160 2490 c0 -5 5 -10 10 -10 6 0 10 5 10 10 0 6 -4 10 -10 10 -5 0
-10 -4 -10 -10z"/>
<path d="M1941 2444 c0 -11 3 -14 6 -6 3 7 2 16 -1 19 -3 4 -6 -2 -5 -13z"/>
<path d="M2350 2409 c0 -5 5 -7 10 -4 6 3 10 8 10 11 0 2 -4 4 -10 4 -5 0 -10
-5 -10 -11z"/>
<path d="M2238 2073 c6 -2 18 -2 25 0 6 3 1 5 -13 5 -14 0 -19 -2 -12 -5z"/>
<path d="M2041 1944 c0 -11 3 -14 6 -6 3 7 2 16 -1 19 -3 4 -6 -2 -5 -13z"/>
<path d="M2150 1940 c0 -5 7 -7 15 -4 8 4 15 8 15 10 0 2 -7 4 -15 4 -8 0 -15
-4 -15 -10z"/>
<path d="M2488 1943 c7 -3 16 -2 19 1 4 3 -2 6 -13 5 -11 0 -14 -3 -6 -6z"/>
<path d="M910 1930 c0 -5 5 -10 11 -10 5 0 7 5 4 10 -3 6 -8 10 -11 10 -2 0
-4 -4 -4 -10z"/>
<path d="M2438 1933 c7 -3 16 -2 19 1 4 3 -2 6 -13 5 -11 0 -14 -3 -6 -6z"/>
<path d="M0 1856 c0 -50 4 -75 13 -79 6 -2 64 -5 127 -6 63 -1 180 -3 260 -6
80 -2 332 -7 560 -11 259 -4 417 -10 421 -17 9 -13 17 16 24 94 l7 66 -168 2
c-201 3 -269 7 -283 16 -6 3 -11 1 -11 -6 0 -7 -8 -9 -22 -4 -13 4 -132 7
-265 6 -156 -1 -243 3 -243 9 0 6 -8 5 -19 -2 -15 -9 -23 -9 -35 1 -12 10 -16
10 -16 2 0 -9 -15 -11 -52 -7 -29 3 -108 8 -175 11 l-123 5 0 -74z"/>
<path d="M2260 1920 c-11 -8 -7 -9 15 -4 37 8 45 14 19 14 -10 0 -26 -5 -34
-10z"/>
<path d="M1442 1899 c-15 -23 -23 -118 -23 -254 0 -129 0 -135 10 -135 10 0
21 83 12 87 -9 4 0 113 9 113 33 0 84 -120 64 -151 -4 -8 -3 -9 5 -5 7 5 10
27 9 56 -2 26 -6 46 -9 45 -3 -2 -11 11 -18 30 -6 19 -21 37 -31 40 -11 4 -20
10 -20 14 0 5 186 9 413 9 226 1 485 1 575 2 l162 0 0 74 0 74 -72 5 c-40 2
-103 6 -141 9 -37 2 -70 2 -73 -1 -8 -9 -22 -9 -328 -15 -206 -4 -283 -3 -293
6 -11 9 -17 9 -23 -3 -8 -11 -13 -12 -30 -1 -23 14 -42 16 -20 2 12 -8 9 -10
-13 -10 -16 0 -26 4 -23 9 3 5 -5 11 -19 13 -20 4 -23 3 -14 -8 9 -11 8 -14
-1 -14 -7 0 -19 8 -27 18 -10 12 -16 14 -19 5 -7 -15 -41 -17 -46 -3 -2 6 -9
1 -16 -11z"/>
<path d="M2328 1733 c7 -3 16 -2 19 1 4 3 -2 6 -13 5 -11 0 -14 -3 -6 -6z"/>
<path d="M1377 1701 c-4 -17 -3 -21 5 -13 5 5 8 16 6 23 -3 8 -7 3 -11 -10z"/>
<path d="M1360 1655 c0 -8 5 -15 10 -15 6 0 10 7 10 15 0 8 -4 15 -10 15 -5 0
-10 -7 -10 -15z"/>
<path d="M1480 1655 c0 -5 5 -17 10 -25 5 -8 10 -10 10 -5 0 6 -5 17 -10 25
-5 8 -10 11 -10 5z"/>
<path d="M1380 1560 c-7 -26 -8 -46 -2 -52 6 -6 12 9 16 38 3 26 4 49 2 52 -3
2 -10 -15 -16 -38z"/>
<path d="M1346 1545 c-3 -8 -1 -15 4 -15 6 0 10 7 10 15 0 8 -2 15 -4 15 -2 0
-6 -7 -10 -15z"/>
<path d="M1426 1485 c15 -12 16 -16 5 -24 -16 -10 -6 -31 15 -31 14 0 14 -2 0
-15 -15 -16 -56 -21 -56 -7 0 12 -244 4 -248 -8 -2 -5 -8 -7 -14 -4 -5 3 -26
3 -46 -1 -20 -4 -31 -10 -24 -12 7 -3 -6 -21 -34 -46 -62 -57 -65 -85 -13
-128 39 -32 43 -55 7 -43 -17 5 -18 3 -9 -15 7 -12 8 -21 4 -21 -4 0 2 -7 13
-15 10 -8 14 -15 8 -15 -15 0 -64 24 -64 33 0 4 -4 7 -9 7 -13 0 -25 -39 -22
-68 1 -14 -5 -29 -15 -37 -15 -10 -16 -16 -6 -27 6 -8 9 -18 5 -21 -8 -9 17
-38 28 -31 5 3 7 -1 4 -8 -5 -14 40 -66 98 -112 20 -16 37 -36 37 -43 0 -7 3
-12 8 -11 8 3 71 -58 89 -87 7 -11 20 -37 29 -57 9 -21 20 -38 24 -38 5 0 14
-15 20 -34 17 -53 135 -158 227 -202 136 -66 209 -49 231 53 10 50 0 113 -19
113 -4 0 -10 12 -14 27 -3 15 -18 38 -31 52 -14 14 -31 39 -38 56 -7 17 -25
39 -40 49 -15 9 -61 52 -102 94 -70 73 -102 129 -95 170 1 6 -3 12 -9 12 -5 0
-10 7 -10 15 0 8 -6 12 -14 9 -7 -3 -16 1 -19 9 -3 8 -20 17 -39 21 -27 5 -30
9 -18 17 13 9 12 10 -3 5 -24 -8 -55 7 -100 46 l-38 33 93 0 c55 0 104 5 119
12 36 18 238 10 250 -9 7 -10 9 -9 9 3 0 11 9 16 29 16 70 0 171 80 171 135
-1 45 -30 79 -61 71 -14 -3 -21 -2 -16 3 9 9 12 10 50 14 14 1 17 3 7 7 -53
17 -109 64 -102 86 1 5 -2 6 -8 2 -6 -4 -18 -1 -27 7 -13 11 -18 9 -31 -10
-14 -21 -50 -33 -37 -12 4 7 -2 9 -17 5 -13 -3 -40 1 -60 10 -21 8 -50 15 -65
15 -26 0 -26 -1 -7 -15z m264 -145 c0 -10 -64 -11 -80 0 -11 7 -2 9 33 8 26
-1 47 -4 47 -8z m-710 -260 c0 -17 -2 -19 -14 -8 -10 9 -11 15 -2 20 16 11 16
10 16 -12z m40 -6 c0 -8 -4 -12 -10 -9 -5 3 -10 1 -10 -6 0 -7 -2 -10 -5 -7
-8 7 5 38 16 38 5 0 9 -7 9 -16z m31 -1 c13 -16 12 -17 -3 -4 -10 7 -18 15
-18 17 0 8 8 3 21 -13z m5 -35 c4 -6 3 -8 -4 -4 -5 3 -13 0 -15 -6 -3 -8 -6
-6 -6 5 -1 19 14 23 25 5z m34 -43 c0 -10 -10 -15 -27 -15 l-28 0 25 14 c14 8
26 14 28 15 1 1 2 -6 2 -14z m7 -57 c-3 -8 -6 -5 -6 6 -1 11 2 17 5 13 3 -3 4
-12 1 -19z m163 -92 c0 -3 -4 -8 -10 -11 -5 -3 -10 -1 -10 4 0 6 5 11 10 11 6
0 10 -2 10 -4z m20 -41 c0 -14 -5 -25 -11 -25 -5 0 -7 -4 -4 -10 3 -5 -1 -10
-9 -10 -9 0 -16 7 -16 15 0 8 6 15 14 15 9 0 12 7 9 20 -3 11 0 20 6 20 6 0
11 -11 11 -25z m15 -51 c-14 -20 -28 -48 -31 -61 -5 -20 -24 -34 -24 -18 0 20
69 129 77 122 2 -3 -8 -22 -22 -43z"/>
<path d="M1310 1475 c-7 -9 -11 -17 -9 -20 3 -2 10 5 17 15 14 24 10 26 -8 5z"/>
<path d="M1270 1450 c0 -5 5 -10 11 -10 5 0 7 5 4 10 -3 6 -8 10 -11 10 -2 0
-4 -4 -4 -10z"/>
<path d="M950 1385 c-7 -9 -11 -17 -9 -20 3 -2 10 5 17 15 14 24 10 26 -8 5z"/>
<path d="M941 1274 c0 -11 3 -14 6 -6 3 7 2 16 -1 19 -3 4 -6 -2 -5 -13z"/>
<path d="M1200 1096 c0 -2 7 -7 16 -10 8 -3 12 -2 9 4 -6 10 -25 14 -25 6z"/>
</g>
</svg>
